<svg xmlns="http://www.w3.org/2000/svg">

    <symbol id="search-icon" width="20" height="20" viewBox="0 0 20 20" fill="none">
        <g id="fi-rr-search" clip-path="url(#clip0_3290_208)">
        <rect width="18.4002" height="18.4002" transform="translate(0.766663 0.766602)" fill="white"/>
        <path id="Vector" d="M18.9422 17.8579L14.3659 13.2817C15.613 11.7564 16.2262 9.81023 16.0785 7.84561C15.9309 5.88098 15.0338 4.04825 13.5729 2.7265C12.1119 1.40475 10.1987 0.6951 8.22919 0.744345C6.25964 0.79359 4.38437 1.59796 2.99126 2.99107C1.59814 4.38419 0.793773 6.25946 0.744528 8.229C0.695283 10.1985 1.40493 12.1117 2.72668 13.5727C4.04843 15.0337 5.88117 15.9307 7.84579 16.0784C9.81041 16.226 11.7566 15.6128 13.2818 14.3657L17.8581 18.942C18.0027 19.0817 18.1964 19.1589 18.3974 19.1572C18.5984 19.1554 18.7907 19.0748 18.9328 18.9327C19.075 18.7905 19.1556 18.5982 19.1574 18.3972C19.1591 18.1962 19.0818 18.0025 18.9422 17.8579ZM8.4334 14.5666C7.22033 14.5666 6.0345 14.2069 5.02587 13.5329C4.01724 12.859 3.23111 11.9011 2.76689 10.7804C2.30267 9.65963 2.18121 8.42641 2.41786 7.23665C2.65452 6.04689 3.23867 4.95403 4.09644 4.09626C4.95421 3.23849 6.04707 2.65434 7.23683 2.41768C8.42659 2.18102 9.65981 2.30248 10.7805 2.76671C11.9013 3.23093 12.8592 4.01706 13.5331 5.02569C14.2071 6.03432 14.5668 7.22014 14.5668 8.43321C14.565 10.0593 13.9182 11.6183 12.7683 12.7682C11.6185 13.918 10.0595 14.5648 8.4334 14.5666Z" fill="#292D32"/>
        </g>
        <defs>
        <clipPath id="clip0_3290_208">
        <rect width="18.4002" height="18.4002" fill="white" transform="translate(0.766663 0.766602)"/>
        </clipPath>
        </defs>
    </symbol>

    <symbol id="profile-icon" width="49" height="49" viewBox="0 0 49 49" fill="none">
        <g id="Group 18">
        <circle id="Ellipse 18" cx="24.5" cy="24.5" r="24.5" fill="#F9F9F9"/>
        <g id="Group 31">
        <path id="Vector" d="M34.2232 33.8578V31.6184C34.2232 30.4306 33.7338 29.2914 32.8628 28.4515C31.9918 27.6115 30.8104 27.1396 29.5785 27.1396H20.2892C19.0574 27.1396 17.876 27.6115 17.0049 28.4515C16.1339 29.2914 15.6445 30.4306 15.6445 31.6184V33.8578" stroke="#292D32" stroke-width="1.5" stroke-linecap="round" stroke-linejoin="round"/>
        <path id="Vector_2" d="M24.9337 22.6607C27.4989 22.6607 29.5784 20.6555 29.5784 18.1819C29.5784 15.7083 27.4989 13.7031 24.9337 13.7031C22.3685 13.7031 20.2891 15.7083 20.2891 18.1819C20.2891 20.6555 22.3685 22.6607 24.9337 22.6607Z" stroke="#292D32" stroke-width="1.5" stroke-linecap="round" stroke-linejoin="round"/>
        </g>
        </g>
    </symbol>

    <symbol id="connection-icon" width="24" height="24" viewBox="0 0 24 24" fill="none">
        <g id="fi-rr-signal-alt" clip-path="url(#clip0_3290_194)">
        <path id="Vector" d="M9.94939 6.94939C10.4932 6.40553 11.2309 6.1 12 6.1C12.7691 6.1 13.5068 6.40553 14.0506 6.94939C14.5945 7.49325 14.9 8.23087 14.9 9V21C14.9 21.7691 14.5945 22.5068 14.0506 23.0506C13.5068 23.5945 12.7691 23.9 12 23.9C11.2309 23.9 10.4932 23.5945 9.94939 23.0506C9.40553 22.5068 9.1 21.7691 9.1 21V9C9.1 8.23087 9.40553 7.49325 9.94939 6.94939ZM12.7778 21.7778C12.9841 21.5715 13.1 21.2917 13.1 21V9C13.1 8.70826 12.9841 8.42847 12.7778 8.22218C12.5715 8.01589 12.2917 7.9 12 7.9C11.7083 7.9 11.4285 8.01589 11.2222 8.22218C11.0159 8.42847 10.9 8.70826 10.9 9V21C10.9 21.2917 11.0159 21.5715 11.2222 21.7778C11.4285 21.9841 11.7083 22.1 12 22.1C12.2917 22.1 12.5715 21.9841 12.7778 21.7778Z" fill="#292D32" stroke="#FAFAFA" stroke-width="0.2"/>
        <path id="Vector_2" d="M18.9494 0.94939C19.4932 0.405535 20.2309 0.1 21 0.1C21.7691 0.1 22.5068 0.405535 23.0506 0.94939C23.5945 1.49325 23.9 2.23087 23.9 3V21C23.9 21.7691 23.5945 22.5068 23.0506 23.0506C22.5068 23.5945 21.7691 23.9 21 23.9C20.2309 23.9 19.4932 23.5945 18.9494 23.0506C18.4055 22.5068 18.1 21.7691 18.1 21V3C18.1 2.23087 18.4055 1.49325 18.9494 0.94939ZM21.7778 21.7778C21.9841 21.5715 22.1 21.2917 22.1 21V3C22.1 2.70826 21.9841 2.42847 21.7778 2.22218C21.5715 2.01589 21.2917 1.9 21 1.9C20.7083 1.9 20.4285 2.01589 20.2222 2.22218C20.0159 2.42847 19.9 2.70826 19.9 3V21C19.9 21.2917 20.0159 21.5715 20.2222 21.7778C20.4285 21.9841 20.7083 22.1 21 22.1C21.2917 22.1 21.5715 21.9841 21.7778 21.7778Z" fill="#292D32" stroke="#FAFAFA" stroke-width="0.2"/>
        <rect id="Rectangle 32" x="0.75" y="12.75" width="4.5" height="10.5" rx="2.25" stroke="#292D32" stroke-width="1.5"/>
        </g>
        <defs>
        <clipPath id="clip0_3290_194">
        <rect width="24" height="24" fill="white"/>
        </clipPath>
        </defs>
    </symbol>

    <symbol id="heart-icon" width="24" height="24" viewBox="0 0 24 24" fill="none">
        <g clip-path="url(#clip0_3290_201)">
        <mask id="path-1-inside-1_3290_201" fill="white">
        <path d="M17.5 1.91699C16.374 1.93451 15.2725 2.24885 14.3068 2.82826C13.3411 3.40768 12.5454 4.23166 12 5.21699C11.4546 4.23166 10.6589 3.40768 9.69324 2.82826C8.72754 2.24885 7.62605 1.93451 6.5 1.91699C4.70494 1.99498 3.01371 2.78025 1.79579 4.10122C0.577864 5.4222 -0.0677465 7.17152 4.06709e-06 8.96699C4.06709e-06 13.514 4.786 18.48 8.8 21.847C9.69622 22.6001 10.8294 23.013 12 23.013C13.1706 23.013 14.3038 22.6001 15.2 21.847C19.214 18.48 24 13.514 24 8.96699C24.0678 7.17152 23.4221 5.4222 22.2042 4.10122C20.9863 2.78025 19.2951 1.99498 17.5 1.91699ZM13.915 20.317C13.379 20.7684 12.7008 21.0159 12 21.0159C11.2993 21.0159 10.621 20.7684 10.085 20.317C4.947 16.006 2 11.87 2 8.96699C1.93164 7.70171 2.36637 6.46072 3.20937 5.51469C4.05236 4.56866 5.23524 3.99434 6.5 3.91699C7.76477 3.99434 8.94764 4.56866 9.79064 5.51469C10.6336 6.46072 11.0684 7.70171 11 8.96699C11 9.23221 11.1054 9.48656 11.2929 9.6741C11.4804 9.86164 11.7348 9.96699 12 9.96699C12.2652 9.96699 12.5196 9.86164 12.7071 9.6741C12.8946 9.48656 13 9.23221 13 8.96699C12.9316 7.70171 13.3664 6.46072 14.2094 5.51469C15.0524 4.56866 16.2352 3.99434 17.5 3.91699C18.7648 3.99434 19.9476 4.56866 20.7906 5.51469C21.6336 6.46072 22.0684 7.70171 22 8.96699C22 11.87 19.053 16.006 13.915 20.313V20.317Z"/>
        </mask>
        <path d="M17.5 1.91699C16.374 1.93451 15.2725 2.24885 14.3068 2.82826C13.3411 3.40768 12.5454 4.23166 12 5.21699C11.4546 4.23166 10.6589 3.40768 9.69324 2.82826C8.72754 2.24885 7.62605 1.93451 6.5 1.91699C4.70494 1.99498 3.01371 2.78025 1.79579 4.10122C0.577864 5.4222 -0.0677465 7.17152 4.06709e-06 8.96699C4.06709e-06 13.514 4.786 18.48 8.8 21.847C9.69622 22.6001 10.8294 23.013 12 23.013C13.1706 23.013 14.3038 22.6001 15.2 21.847C19.214 18.48 24 13.514 24 8.96699C24.0678 7.17152 23.4221 5.4222 22.2042 4.10122C20.9863 2.78025 19.2951 1.99498 17.5 1.91699ZM13.915 20.317C13.379 20.7684 12.7008 21.0159 12 21.0159C11.2993 21.0159 10.621 20.7684 10.085 20.317C4.947 16.006 2 11.87 2 8.96699C1.93164 7.70171 2.36637 6.46072 3.20937 5.51469C4.05236 4.56866 5.23524 3.99434 6.5 3.91699C7.76477 3.99434 8.94764 4.56866 9.79064 5.51469C10.6336 6.46072 11.0684 7.70171 11 8.96699C11 9.23221 11.1054 9.48656 11.2929 9.6741C11.4804 9.86164 11.7348 9.96699 12 9.96699C12.2652 9.96699 12.5196 9.86164 12.7071 9.6741C12.8946 9.48656 13 9.23221 13 8.96699C12.9316 7.70171 13.3664 6.46072 14.2094 5.51469C15.0524 4.56866 16.2352 3.99434 17.5 3.91699C18.7648 3.99434 19.9476 4.56866 20.7906 5.51469C21.6336 6.46072 22.0684 7.70171 22 8.96699C22 11.87 19.053 16.006 13.915 20.313V20.317Z" fill="#292D32" stroke="#F9F9F9" stroke-width="0.6" mask="url(#path-1-inside-1_3290_201)"/>
        </g>
        <defs>
        <clipPath id="clip0_3290_201">
        <rect width="24" height="24" fill="white"/>
        </clipPath>
        </defs>
    </symbol>

    <symbol id="shopping-bag-icon" width="27" height="27" viewBox="0 0 27 27" fill="none">
        <g id="clarity:shopping-bag-line">
        <path id="Vector" d="M18.1158 8.69568V6.55802C18.1158 5.8919 17.9846 5.2323 17.7297 4.61689C17.4748 4.00147 17.1011 3.44229 16.6301 2.97127C16.1591 2.50026 15.5999 2.12662 14.9845 1.87171C14.3691 1.6168 13.7095 1.4856 13.0434 1.4856C12.3773 1.4856 11.7177 1.6168 11.1022 1.87171C10.4868 2.12662 9.92765 2.50026 9.45663 2.97127C8.98561 3.44229 8.61198 4.00147 8.35707 4.61689C8.10215 5.2323 7.97095 5.8919 7.97095 6.55802V11.6304C7.97095 11.8226 8.0473 12.0069 8.18319 12.1428C8.31909 12.2787 8.5034 12.3551 8.69558 12.3551C8.88777 12.3551 9.07208 12.2787 9.20798 12.1428C9.34387 12.0069 9.42022 11.8226 9.42022 11.6304V10.1449H15.2173V8.69568H9.42022V6.55802C9.42022 5.5971 9.80194 4.67553 10.4814 3.99606C11.1609 3.31658 12.0825 2.93486 13.0434 2.93486C14.0043 2.93486 14.9259 3.31658 15.6053 3.99606C16.2848 4.67553 16.6665 5.5971 16.6665 6.55802V11.5942C16.6665 11.7864 16.7429 11.9707 16.8788 12.1066C17.0147 12.2425 17.199 12.3188 17.3912 12.3188C17.5833 12.3188 17.7677 12.2425 17.9036 12.1066C18.0395 11.9707 18.1158 11.7864 18.1158 11.5942V10.1449H21.739V23.1883H4.34779V10.1449H6.52169V8.69568H2.89853V23.2535C2.89853 23.6206 3.04435 23.9726 3.30391 24.2322C3.56347 24.4918 3.9155 24.6376 4.28258 24.6376H21.8042C22.1712 24.6376 22.5233 24.4918 22.7828 24.2322C23.0424 23.9726 23.1882 23.6206 23.1882 23.2535V8.69568H18.1158Z" fill="#292D32"/>
        </g>
    </symbol>

    <symbol id="scroll-icon" width="25" height="39" viewBox="0 0 25 39" fill="none">
        <path id="Union" fill-rule="evenodd" clip-rule="evenodd" d="M23 13V26.5C23 32.299 18.299 37 12.5 37C6.70101 37 2 32.299 2 26.5V13C2 7.20101 6.70101 2.5 12.5 2.5C18.299 2.5 23 7.20101 23 13ZM0 13C0 6.09644 5.59644 0.5 12.5 0.5C19.4036 0.5 25 6.09644 25 13V26.5C25 33.4036 19.4036 39 12.5 39C5.59644 39 0 33.4036 0 26.5V13ZM11.5 20.5V29.5L13.5 29.5V20.5H11.5Z" fill="#33A9FF"/>
    </symbol>

    <symbol id="swiper-btn" width="106" height="23" viewBox="0 0 106 23" fill="none" xmlns="http://www.w3.org/2000/svg">
        <path id="Vector 2" d="M94 1L104.5 11.5M104.5 11.5L94 22M104.5 11.5H0" stroke="#292D32" stroke-width="1.5"/>
    </symbol>
    
    <symbol id="perks-price" width="37" height="37" viewBox="0 0 37 37" fill="none">
        <g id="vuesax/linear/card-pos">
        <g id="vuesax/linear/card-pos_2">
        <g id="card-pos">
        <path id="Vector" d="M5.91241 23.8909L23.8917 5.91162" stroke="white" stroke-width="3" stroke-miterlimit="10" stroke-linecap="round" stroke-linejoin="round"/>
        <path id="Vector_2" d="M16.7024 27.5015L18.5078 25.696" stroke="white" stroke-width="3" stroke-miterlimit="10" stroke-linecap="round" stroke-linejoin="round"/>
        <path id="Vector_3" d="M20.7521 23.4539L24.348 19.858" stroke="white" stroke-width="3" stroke-miterlimit="10" stroke-linecap="round" stroke-linejoin="round"/>
        <path id="Vector_4" d="M5.41828 15.405L15.4085 5.4148C18.5981 2.22516 20.1929 2.21011 23.3525 5.36966L30.7398 12.757C33.8993 15.9165 33.8843 17.5113 30.6946 20.701L20.7045 30.6912C17.5148 33.8808 15.92 33.8958 12.7605 30.7363L5.37314 23.349C2.2136 20.1894 2.2136 18.6097 5.41828 15.405Z" stroke="white" stroke-width="3" stroke-linecap="round" stroke-linejoin="round"/>
        <path id="Vector_5" d="M3.00909 33.0978H33.1" stroke="white" stroke-width="3" stroke-linecap="round" stroke-linejoin="round"/>
        </g>
        </g>
        </g>
    </symbol>

    <symbol id="perks-asc" width="36" height="36" viewBox="0 0 36 36" fill="none">
        <g id="&#208;&#152;&#208;&#186;&#208;&#190;&#208;&#189;&#208;&#186;&#208;&#176;">
        <g id="vuesax/linear/verify">
        <g id="verify">
        <path id="Vector" d="M12.5699 18.0001L16.1849 21.6302L23.4299 14.3701" stroke="white" stroke-width="3" stroke-linecap="round" stroke-linejoin="round"/>
        <path id="Vector_2" d="M16.1249 3.67498C17.1599 2.78998 18.8549 2.78998 19.9049 3.67498L22.2749 5.71499C22.7249 6.10499 23.5649 6.41999 24.1649 6.41999H26.7149C28.3049 6.41999 29.6099 7.72499 29.6099 9.31499V11.865C29.6099 12.45 29.9249 13.305 30.3149 13.755L32.3549 16.125C33.2399 17.16 33.2399 18.855 32.3549 19.905L30.3149 22.275C29.9249 22.725 29.6099 23.565 29.6099 24.165V26.715C29.6099 28.305 28.3049 29.61 26.7149 29.61H24.1649C23.5799 29.61 22.7249 29.925 22.2749 30.315L19.9049 32.355C18.8699 33.24 17.1749 33.24 16.1249 32.355L13.7549 30.315C13.3049 29.925 12.4649 29.61 11.8649 29.61H9.26994C7.67994 29.61 6.37494 28.305 6.37494 26.715V24.15C6.37494 23.565 6.05994 22.725 5.68494 22.275L3.65995 19.89C2.78995 18.855 2.78995 17.175 3.65995 16.14L5.68494 13.755C6.05994 13.305 6.37494 12.465 6.37494 11.88V9.29999C6.37494 7.70999 7.67994 6.40499 9.26994 6.40499H11.8649C12.4499 6.40499 13.3049 6.08999 13.7549 5.69999L16.1249 3.67498Z" stroke="white" stroke-width="3" stroke-linecap="round" stroke-linejoin="round"/>
        </g>
        </g>
        </g>
    </symbol>

    <symbol id="perks-expert" width="36" height="36" viewBox="0 0 36 36" fill="none">
        <g id="vuesax/linear/people">
        <g id="vuesax/linear/people_2">
        <g id="people">
        <g id="Group">
        <path id="Vector" d="M27 10.74C26.91 10.725 26.805 10.725 26.715 10.74C24.645 10.665 22.995 8.97 22.995 6.87C22.995 4.725 24.72 3 26.865 3C29.01 3 30.735 4.74 30.735 6.87C30.72 8.97 29.07 10.665 27 10.74Z" stroke="white" stroke-width="3" stroke-linecap="round" stroke-linejoin="round"/>
        <path id="Vector_2" d="M25.455 21.66C27.51 22.005 29.775 21.645 31.365 20.58C33.48 19.17 33.48 16.86 31.365 15.45C29.76 14.385 27.465 14.025 25.41 14.385" stroke="white" stroke-width="3" stroke-linecap="round" stroke-linejoin="round"/>
        </g>
        <g id="Group_2">
        <path id="Vector_3" d="M8.955 10.74C9.045 10.725 9.15 10.725 9.24 10.74C11.31 10.665 12.96 8.97 12.96 6.87C12.96 4.725 11.235 3 9.09 3C6.945 3 5.22 4.74 5.22 6.87C5.235 8.97 6.885 10.665 8.955 10.74Z" stroke="white" stroke-width="3" stroke-linecap="round" stroke-linejoin="round"/>
        <path id="Vector_4" d="M10.5 21.66C8.445 22.005 6.18 21.645 4.59 20.58C2.475 19.17 2.475 16.86 4.59 15.45C6.195 14.385 8.49 14.025 10.545 14.385" stroke="white" stroke-width="3" stroke-linecap="round" stroke-linejoin="round"/>
        </g>
        <g id="Group_3">
        <path id="Vector_5" d="M18 21.945C17.91 21.93 17.805 21.93 17.715 21.945C15.645 21.87 13.995 20.175 13.995 18.075C13.995 15.93 15.72 14.205 17.865 14.205C20.01 14.205 21.735 15.945 21.735 18.075C21.72 20.175 20.07 21.885 18 21.945Z" stroke="white" stroke-width="3" stroke-linecap="round" stroke-linejoin="round"/>
        <path id="Vector_6" d="M13.635 26.6699C11.52 28.0799 11.52 30.3899 13.635 31.7999C16.035 33.4049 19.965 33.4049 22.365 31.7999C24.48 30.3899 24.48 28.0799 22.365 26.6699C19.98 25.0799 16.035 25.0799 13.635 26.6699Z" stroke="white" stroke-width="3" stroke-linecap="round" stroke-linejoin="round"/>
        </g>
        </g>
        </g>
        </g>
    </symbol>

    <symbol id="perks-official-partner" width="36" height="37" viewBox="0 0 36 37" fill="none">
        <g id="vuesax/linear/3dcube">
        <g id="vuesax/linear/3dcube_2">
        <g id="3dcube">
        <path id="Vector" d="M19.38 3.41492L29.145 8.7187C30.285 9.33823 30.285 11.1062 29.145 11.7257L19.38 17.0295C18.51 17.4979 17.49 17.4979 16.62 17.0295L6.855 11.7257C5.715 11.1062 5.715 9.33823 6.855 8.7187L16.62 3.41492C17.49 2.94649 18.51 2.94649 19.38 3.41492Z" stroke="white" stroke-width="3" stroke-linecap="round" stroke-linejoin="round"/>
        <path id="Vector_2" d="M5.415 15.3069L14.49 19.8854C15.615 20.4596 16.335 21.6231 16.335 22.8924V31.5356C16.335 32.7898 15.03 33.5906 13.92 33.0316L4.845 28.4531C3.72 27.8789 3 26.7154 3 25.4461V16.8029C3 15.5487 4.305 14.7478 5.415 15.3069Z" stroke="white" stroke-width="3" stroke-linecap="round" stroke-linejoin="round"/>
        <path id="Vector_3" d="M30.585 15.3069L21.51 19.8854C20.385 20.4596 19.665 21.6231 19.665 22.8924V31.5356C19.665 32.7898 20.97 33.5906 22.08 33.0316L31.155 28.4531C32.28 27.8789 33 26.7154 33 25.4461V16.8029C33 15.5487 31.695 14.7478 30.585 15.3069Z" stroke="white" stroke-width="3" stroke-linecap="round" stroke-linejoin="round"/>
        </g>
        </g>
        </g>
    </symbol>

    <symbol id="news-btn" width="95" height="67" viewBox="0 0 95 67" fill="none">
        <path d="M19 17.5C13 26 4.16667 21.5 0 19L1 28L25 42L75 44C84 34 99.7724 10.7081 92 17.0001C81.5 25.5001 78 17.5 75.5 13.4999C58.8333 12.9999 29.0424 3.27329 19 17.5Z" fill="white"/>
        <circle cx="48.5" cy="33.5" r="27.5" fill="#292D32" stroke="white" stroke-width="12"/>
        <path d="M51.1785 32.7961L48.4795 30.1159L49.9977 28.579L55.3019 33.8832L49.9977 39.1874L48.4795 37.6693L51.1785 34.9515H44.7497V32.7961H51.1785Z" fill="white"/>
    </symbol>

    <symbol id="location-icon" width="38" height="38" viewBox="0 0 38 38" fill="none">
        <g id="vuesax/linear/location">
        <g id="vuesax/linear/location_2">
        <g id="location">
        <path id="Vector" d="M19 21.2641C21.7283 21.2641 23.94 19.0524 23.94 16.3241C23.94 13.5958 21.7283 11.3841 19 11.3841C16.2717 11.3841 14.06 13.5958 14.06 16.3241C14.06 19.0524 16.2717 21.2641 19 21.2641Z" stroke="#48A4EB" stroke-width="3"/>
        <path id="Vector_2" d="M5.73165 13.4425C8.85082 -0.269142 29.165 -0.253309 32.2683 13.4584C34.0892 21.5017 29.0858 28.31 24.7 32.5217C21.5175 35.5934 16.4825 35.5934 13.2842 32.5217C8.91415 28.31 3.91082 21.4859 5.73165 13.4425Z" stroke="#48A4EB" stroke-width="3"/>
        </g>
        </g>
        </g>
    </symbol>

    <symbol id="letter-icon" width="36" height="36" viewBox="0 0 36 36" fill="none">
        <g id="vuesax/linear/sms">
        <g id="vuesax/linear/sms_2">
        <g id="sms">
        <path id="Vector" d="M25.5 30.75H10.5C6 30.75 3 28.5 3 23.25V12.75C3 7.5 6 5.25 10.5 5.25H25.5C30 5.25 33 7.5 33 12.75V23.25C33 28.5 30 30.75 25.5 30.75Z" stroke="#48A4EB" stroke-width="3" stroke-miterlimit="10" stroke-linecap="round" stroke-linejoin="round"/>
        <path id="Vector_2" d="M25.5 13.5L20.805 17.25C19.26 18.48 16.725 18.48 15.18 17.25L10.5 13.5" stroke="#48A4EB" stroke-width="3" stroke-miterlimit="10" stroke-linecap="round" stroke-linejoin="round"/>
        </g>
        </g>
        </g>
    </symbol>

    <symbol id="phone-icon" width="36" height="36" viewBox="0 0 36 36" fill="none">
        <g id="vuesax/linear/call-calling">
        <g id="vuesax/linear/call-calling_2">
        <g id="call-calling">
        <g id="call-calling_2">
        <path id="Vector" d="M32.955 27.495C32.955 28.035 32.835 28.59 32.58 29.13C32.325 29.67 31.995 30.18 31.56 30.66C30.825 31.47 30.015 32.055 29.1 32.43C28.2 32.805 27.225 33 26.175 33C24.645 33 23.01 32.64 21.285 31.905C19.56 31.17 17.835 30.18 16.125 28.935C14.4 27.675 12.765 26.28 11.205 24.735C9.66 23.175 8.265 21.54 7.02 19.83C5.79 18.12 4.8 16.41 4.08 14.715C3.36 13.005 3 11.37 3 9.81C3 8.79 3.18 7.815 3.54 6.915C3.9 6 4.47 5.16 5.265 4.41C6.225 3.465 7.275 3 8.385 3C8.805 3 9.225 3.09 9.6 3.27C9.99 3.45 10.335 3.72 10.605 4.11L14.085 9.015C14.355 9.39 14.55 9.735 14.685 10.065C14.82 10.38 14.895 10.695 14.895 10.98C14.895 11.34 14.79 11.7 14.58 12.045C14.385 12.39 14.1 12.75 13.74 13.11L12.6 14.295C12.435 14.46 12.36 14.655 12.36 14.895C12.36 15.015 12.375 15.12 12.405 15.24C12.45 15.36 12.495 15.45 12.525 15.54C12.795 16.035 13.26 16.68 13.92 17.46C14.595 18.24 15.315 19.035 16.095 19.83C16.905 20.625 17.685 21.36 18.48 22.035C19.26 22.695 19.905 23.145 20.415 23.415C20.49 23.445 20.58 23.49 20.685 23.535C20.805 23.58 20.925 23.595 21.06 23.595C21.315 23.595 21.51 23.505 21.675 23.34L22.815 22.215C23.19 21.84 23.55 21.555 23.895 21.375C24.24 21.165 24.585 21.06 24.96 21.06C25.245 21.06 25.545 21.12 25.875 21.255C26.205 21.39 26.55 21.585 26.925 21.84L31.89 25.365C32.28 25.635 32.55 25.95 32.715 26.325C32.865 26.7 32.955 27.075 32.955 27.495Z" stroke="#48A4EB" stroke-width="3" stroke-miterlimit="10"/>
        <path id="Vector_2" d="M27.75 13.5C27.75 12.6 27.045 11.22 25.995 10.095C25.035 9.06 23.76 8.25 22.5 8.25" stroke="#48A4EB" stroke-width="3" stroke-linecap="round" stroke-linejoin="round"/>
        <path id="Vector_3" d="M33 13.5C33 7.695 28.305 3 22.5 3" stroke="#48A4EB" stroke-width="3" stroke-linecap="round" stroke-linejoin="round"/>
        </g>
        </g>
        </g>
        </g>
    </symbol>

</svg>